# xmcd
#
# Track frame offsets: 
#        150
#        16279
#        37537
#        53147
#        72566
#        86397
#        106177
#        122770
#        136622
#        156165
#
# Disc length: 2219 seconds
#
# Revision: 0
# Processed by: cddbd v1.5.2PL0 Copyright (c) Steve Scherf et al.
# Submitted via: ExactAudioCopy v1.0b3
#
DISCID=7108a90a
DTITLE=Kevin Russell - Country Swing
DYEAR=2015
DGENRE=Country
TTITLE0=Country Boy
TTITLE1=Me and the Doggone Blues
TTITLE2=I Hear You Talking
TTITLE3=Pennies from Heaven
TTITLE4=Sweet Temptation
TTITLE5=Milk Cow Blues
TTITLE6=Route 66
TTITLE7=Gotta Have My Baby Back
TTITLE8=Stay All Night
TTITLE9=Skip it
EXTD=
EXTT0=
EXTT1=
EXTT2=
EXTT3=
EXTT4=
EXTT5=
EXTT6=
EXTT7=
EXTT8=
EXTT9=
PLAYORDER=
